
>>
>> "C:\Program Files (x86)\ffmpegyag\bin\ffmpeg.exe" -i "C:\Users\Public\Documents\Unity Projects\test\Assets\Resources\right_1.webm" -strict experimental -f mp4 -map_chapters -1 -map 0:0 -sn -an -c:v:0 libx264 -b:v:0 1800k -mbd:v:0 rd -mbcmp:v:0 rd -cmp:v:0 rd -precmp:v:0 rd -subcmp:v:0 rd -trellis:v:0 1 -y "C:\Users\Public\Documents\Unity Projects\test\Assets\Resources\right_1.mp4"
>>

ffmpeg version 2.5.2 Copyright (c) 2000-2014 the FFmpeg developers
  built on Dec 30 2014 17:18:09 with gcc 4.9.2 (GCC)
  configuration: --disable-static --enable-shared --enable-gpl --enable-version3 --disable-w32threads --enable-avisynth --enable-bzlib --enable-fontconfig --enable-frei0r --enable-gnutls --enable-iconv --enable-libass --enable-libbluray --enable-libbs2b --enable-libcaca --enable-libfreetype --enable-libgme --enable-libgsm --enable-libilbc --enable-libmodplug --enable-libmp3lame --enable-libopencore-amrnb --enable-libopencore-amrwb --enable-libopenjpeg --enable-libopus --enable-librtmp --enable-libschroedinger --enable-libsoxr --enable-libspeex --enable-libtheora --enable-libtwolame --enable-libvidstab --enable-libvo-aacenc --enable-libvo-amrwbenc --enable-libvorbis --enable-libvpx --enable-libwavpack --enable-libwebp --enable-libx264 --enable-libx265 --enable-libxavs --enable-libxvid --enable-lzma --enable-decklink --enable-zlib
  libavutil      54. 15.100 / 54. 15.100
  libavcodec     56. 13.100 / 56. 13.100
  libavformat    56. 15.102 / 56. 15.102
  libavdevice    56.  3.100 / 56.  3.100
  libavfilter     5.  2.103 /  5.  2.103
  libswscale      3.  1.101 /  3.  1.101
  libswresample   1.  1.100 /  1.  1.100
  libpostproc    53.  3.100 / 53.  3.100
Input #0, matroska,webm, from 'C:\Users\Public\Documents\Unity Projects\test\Assets\Resources\right_1.webm':
  Metadata:
    encoder         : Lavf56.15.102
  Duration: 00:00:13.83, start: 0.000000, bitrate: 1854 kb/s
    Stream #0:0(eng): Video: vp8, yuv420p, 960x540, SAR 1:1 DAR 16:9, 30 fps, 30 tbr, 1k tbn, 1k tbc (default)
    Metadata:
      alpha_mode      : 1
[libx264 @ 02c9db00] using SAR=1/1
[libx264 @ 02c9db00] using cpu capabilities: MMX2 SSE2Fast SSSE3 SSE4.2 AVX FMA3 AVX2 LZCNT BMI2
[libx264 @ 02c9db00] profile High, level 3.1
[libx264 @ 02c9db00] 264 - core 144 r2525 40bb568 - H.264/MPEG-4 AVC codec - Copyleft 2003-2014 - http://www.videolan.org/x264.html - options: cabac=1 ref=3 deblock=1:0:0 analyse=0x3:0x113 me=hex subme=7 psy=1 psy_rd=1.00:0.00 mixed_ref=1 me_range=16 chroma_me=0 trellis=1 8x8dct=1 cqm=0 deadzone=21,11 fast_pskip=1 chroma_qp_offset=-2 threads=6 lookahead_threads=1 sliced_threads=0 nr=0 decimate=1 interlaced=0 bluray_compat=0 constrained_intra=0 bframes=3 b_pyramid=2 b_adapt=1 b_bias=0 direct=1 weightb=1 open_gop=0 weightp=2 keyint=250 keyint_min=25 scenecut=40 intra_refresh=0 rc_lookahead=40 rc=abr mbtree=1 bitrate=1800 ratetol=1.0 qcomp=0.60 qpmin=0 qpmax=69 qpstep=4 ip_ratio=1.40 aq=1:1.00
Output #0, mp4, to 'C:\Users\Public\Documents\Unity Projects\test\Assets\Resources\right_1.mp4':
  Metadata:
    encoder         : Lavf56.15.102
    Stream #0:0(eng): Video: h264 (libx264) ([33][0][0][0] / 0x0021), yuv420p, 960x540 [SAR 1:1 DAR 16:9], q=-1--1, 1800 kb/s, 30 fps, 29971 tbn, 30 tbc (default)
    Metadata:
      alpha_mode      : 1
      encoder         : Lavc56.13.100 libx264
Stream mapping:
  Stream #0:0 -> #0:0 (vp8 (native) -> h264 (libx264))
Press [q] to stop, [?] for help
video:3021kB audio:0kB subtitle:0kB other streams:0kB global headers:0kB muxing overhead: 0.188857%
[libx264 @ 02c9db00] frame I:2     Avg QP:13.14  size: 22030
[libx264 @ 02c9db00] frame P:104   Avg QP:14.40  size: 14292
[libx264 @ 02c9db00] frame B:309   Avg QP:17.01  size:  5057
[libx264 @ 02c9db00] consecutive B-frames:  0.7%  0.0%  0.0% 99.3%
[libx264 @ 02c9db00] mb I  I16..4: 34.2% 54.2% 11.6%
[libx264 @ 02c9db00] mb P  I16..4:  1.0%  7.1%  2.4%  P16..4: 10.4%  9.6%  5.3%  0.0%  0.0%    skip:64.2%
[libx264 @ 02c9db00] mb B  I16..4:  0.3%  1.4%  0.6%  B16..8: 13.9%  4.7%  1.7%  direct: 4.5%  skip:73.0%  L0:46.7% L1:35.5% BI:17.8%
[libx264 @ 02c9db00] final ratefactor: 14.63
[libx264 @ 02c9db00] 8x8 transform intra:65.0% inter:42.1%
[libx264 @ 02c9db00] coded y,uvDC,uvAC intra: 82.2% 84.5% 50.4% inter: 14.7% 15.7% 1.8%
[libx264 @ 02c9db00] i16 v,h,dc,p: 40% 10% 29% 21%
[libx264 @ 02c9db00] i8 v,h,dc,ddl,ddr,vr,hd,vl,hu: 17% 17% 29%  4%  5%  4%  8%  7%  9%
[libx264 @ 02c9db00] i4 v,h,dc,ddl,ddr,vr,hd,vl,hu: 17% 21% 18%  6%  8%  6%  9%  5%  8%
[libx264 @ 02c9db00] i8c dc,h,v,p: 55% 24% 15%  6%
[libx264 @ 02c9db00] Weighted P-Frames: Y:0.0% UV:0.0%
[libx264 @ 02c9db00] ref P L0: 51.1% 14.6% 23.4% 10.9%
[libx264 @ 02c9db00] ref B L0: 88.8%  8.2%  3.1%
[libx264 @ 02c9db00] ref B L1: 96.7%  3.3%
[libx264 @ 02c9db00] kb/s:1788.88
